<?xml version="1.0" encoding="utf-8"?>
<!-- Generator: Adobe Illustrator 16.0.0, SVG Export Plug-In . SVG Version: 6.00 Build 0)  -->
<!DOCTYPE svg PUBLIC "-//W3C//DTD SVG 1.1//EN" "http://www.w3.org/Graphics/SVG/1.1/DTD/svg11.dtd">
<svg version="1.1" id="Layer_1" xmlns="http://www.w3.org/2000/svg" xmlns:xlink="http://www.w3.org/1999/xlink" x="0px" y="0px"
	 width="12.375px" height="12.25px" viewBox="0 0 12.375 12.25" enable-background="new 0 0 12.375 12.25" xml:space="preserve">
<path fill="#7D7D7D" d="M12.206,10.527L8.987,7.309C9.419,6.595,9.674,5.758,9.674,4.86c0-2.616-2.118-4.735-4.735-4.735
	c-2.614,0-4.734,2.119-4.734,4.735c0,2.613,2.12,4.731,4.736,4.731c0.897,0,1.733-0.253,2.448-0.686l3.22,3.219L12.206,10.527z
	 M2.011,4.86C2.014,3.242,3.323,1.934,4.94,1.931C6.557,1.935,7.866,3.242,7.869,4.86C7.866,6.476,6.557,7.785,4.94,7.787
	C3.322,7.785,2.013,6.476,2.011,4.86z"/>
</svg>
